<?xml version="1.0" encoding="UTF-8"?>
<svg id="Capa_2" xmlns="http://www.w3.org/2000/svg" xmlns:xlink="http://www.w3.org/1999/xlink" viewBox="0 0 494.29 96.67">
  <defs>
    <style>
      .cls-1 {
        fill: none;
      }

      .cls-2 {
        fill: #833913;
      }

      .cls-3 {
        fill: #592207;
      }

      .cls-4 {
        fill: #a15b0a;
      }

      .cls-5 {
        fill: #b95716;
      }

      .cls-6 {
        fill: #35210a;
      }

      .cls-7 {
        fill: #b94f19;
      }

      .cls-8 {
        fill: #ff8445;
      }

      .cls-9 {
        fill: #6e3d04;
      }

      .cls-10 {
        fill: #a04313;
      }

      .cls-11 {
        fill: #b44e19;
      }

      .cls-12 {
        fill: #472c0d;
      }

      .cls-13 {
        fill: #872105;
      }

      .cls-14 {
        fill: #2c1102;
      }

      .cls-15 {
        fill: #692a0a;
      }

      .cls-16 {
        fill: #ffa030;
      }

      .cls-17 {
        fill: #652d08;
      }

      .cls-18 {
        fill: #c37922;
      }

      .cls-19 {
        fill: #491d06;
      }

      .cls-20 {
        fill: #ae4c19;
      }

      .cls-21 {
        fill: #f56a23;
      }

      .cls-22 {
        fill: #ff6e24;
      }

      .cls-23 {
        fill: #cb571b;
      }

      .cls-24 {
        clip-path: url(#clippath);
      }
    </style>
    <clipPath id="clippath">
      <rect class="cls-1" width="494.29" height="96.67"/>
    </clipPath>
  </defs>
  <g id="Capa_6">
    <g class="cls-24">
      <g>
        <polygon class="cls-3" points="45.95 39.46 65.75 39.29 65.88 29.62 75.74 29.6 75.74 19.74 85.53 19.74 85.53 9.87 95.36 9.87 95.36 0 124.73 0 124.73 9.88 134.93 9.99 134.93 29.58 154.49 29.58 154.62 19.69 174.25 19.74 174.25 29.57 184.14 29.62 184.14 59.14 174.25 59.14 174.25 69 164.48 69 164.42 78.86 154.62 78.86 154.52 147.91 164.37 147.91 164.37 157.92 174.15 157.92 174.15 167.81 184.14 167.81 184.14 177.58 194.13 177.58 194.13 187.47 203.9 187.47 203.9 276.1 193.81 276.1 194.02 285.98 154.59 285.98 154.49 345.28 164.48 345.28 164.48 384.6 16.65 384.6 16.65 345.39 26.32 345.28 26.64 286.41 -12.9 285.84 -12.9 276.21 -22.81 275.92 -22.81 187.29 -13.11 187.43 -13.04 177.51 -3.4 177.65 -3.05 167.66 6.59 167.74 6.59 157.82 16.44 157.75 16.58 147.91 26.57 147.91 26.36 78.89 16.58 78.96 16.58 69.18 6.8 69.18 6.94 29.58 16.29 29.58 16.72 19.87 36.27 19.87 36.27 29.65 45.91 29.65 45.95 39.46 45.95 39.46"/>
        <g>
          <rect class="cls-8" x="164.34" y="29.57" width="9.83" height="9.88"/>
          <rect class="cls-18" x="154.51" y="29.57" width="9.83" height="9.88"/>
          <rect class="cls-6" x="144.63" y="59.16" width="9.83" height="9.88"/>
          <rect class="cls-6" x="25.85" y="49.36" width="9.83" height="9.88"/>
          <rect class="cls-12" x="36.24" y="39.48" width="9.83" height="9.88"/>
          <rect class="cls-21" x="26.63" y="29.45" width="9.83" height="9.88"/>
          <rect class="cls-5" x="16.58" y="29.57" width="9.83" height="19.7"/>
          <rect class="cls-6" x="46.27" y="49.36" width="9.83" height="19.51"/>
          <rect class="cls-12" x="154.51" y="49.14" width="9.83" height="9.88"/>
          <rect class="cls-20" x="134.75" y="59.16" width="9.83" height="29.37"/>
          <rect class="cls-21" x="134.75" y="88.36" width="9.83" height="20.03"/>
          <rect class="cls-3" x="97.56" y="58.93" width="37.16" height="9.83"/>
          <rect class="cls-3" x="134.76" y="39.45" width="29.56" height="9.83"/>
          <rect class="cls-3" x="134.73" y="29.6" width="19.8" height="9.83"/>
          <rect class="cls-3" x="85.53" y="39.51" width="19.72" height="19.69"/>
          <rect class="cls-10" x="65.95" y="59.16" width="31.61" height="9.83"/>
          <rect class="cls-3" x="95.42" y="29.59" width="9.83" height="29.61"/>
          <rect class="cls-15" x="75.79" y="88.53" width="39.26" height="9.83"/>
          <rect class="cls-6" x="114.95" y="88.36" width="19.69" height="9.83"/>
          <rect class="cls-6" x="56.1" y="88.36" width="19.69" height="9.83"/>
          <rect class="cls-5" x="144.63" y="69.04" width="9.83" height="9.88"/>
          <rect class="cls-5" x="154.51" y="59.02" width="9.83" height="9.88"/>
          <rect class="cls-22" x="115.08" y="19.69" width="9.83" height="9.88"/>
          <rect class="cls-2" x="124.91" y="49.39" width="9.83" height="9.88"/>
          <rect class="cls-19" x="124.91" y="68.88" width="9.83" height="9.88"/>
          <rect class="cls-6" x="124.91" y="78.92" width="9.83" height="9.88"/>
          <rect class="cls-17" x="144.63" y="49.39" width="9.83" height="9.88"/>
          <rect class="cls-17" x="105.25" y="39.03" width="9.83" height="10.79"/>
          <rect class="cls-22" x="115.08" y="49.39" width="9.83" height="9.88"/>
          <rect class="cls-5" x="134.75" y="49.39" width="9.83" height="9.88"/>
          <rect class="cls-2" x="105.25" y="49.39" width="9.83" height="9.88"/>
          <rect class="cls-22" x="105.25" y="9.8" width="9.83" height="9.88"/>
          <rect class="cls-7" x="95.42" y="9.8" width="9.83" height="9.88"/>
          <rect class="cls-7" x="85.53" y="19.69" width="9.83" height="9.88"/>
          <rect class="cls-7" x="75.7" y="29.57" width="9.83" height="9.88"/>
          <rect class="cls-7" x="65.95" y="39.48" width="9.83" height="9.88"/>
          <rect class="cls-2" x="105.25" y="29.45" width="9.83" height="9.88"/>
          <rect class="cls-2" x="105.25" y="19.69" width="9.83" height="9.88"/>
          <rect class="cls-2" x="124.95" y="9.8" width="9.83" height="9.88"/>
          <rect class="cls-2" x="85.53" y="29.57" width="9.83" height="9.88"/>
          <rect class="cls-2" x="56.1" y="39.45" width="9.83" height="9.88"/>
          <rect class="cls-17" x="56.1" y="58.9" width="9.83" height="9.88"/>
          <rect class="cls-17" x="46.17" y="68.88" width="9.83" height="9.88"/>
          <rect class="cls-17" x="36" y="59.16" width="9.83" height="9.88"/>
          <rect class="cls-17" x="16.02" y="59.25" width="9.83" height="9.88"/>
          <rect class="cls-17" x="16.02" y="49.65" width="9.83" height="9.88"/>
          <rect class="cls-4" x="46.17" y="78.92" width="9.83" height="9.88"/>
          <rect class="cls-13" x="46.27" y="88.81" width="9.83" height="9.88"/>
          <rect class="cls-15" x="95.42" y="19.69" width="9.83" height="9.88"/>
          <rect class="cls-23" x="85.53" y="69.01" width="19.72" height="19.51"/>
          <rect class="cls-14" x="105.22" y="69.01" width="19.72" height="19.51"/>
          <rect class="cls-11" x="115.08" y="29.27" width="9.83" height="20.13"/>
          <rect class="cls-22" x="124.95" y="29.74" width="9.83" height="19.53"/>
          <rect class="cls-22" x="164.34" y="39.38" width="9.83" height="19.53"/>
          <rect class="cls-16" x="115.08" y="9.8" width="9.83" height="9.88"/>
          <rect class="cls-16" x="124.91" y="19.69" width="9.83" height="9.88"/>
          <rect class="cls-7" x="26.41" y="68.88" width="19.86" height="9.88"/>
          <rect class="cls-9" x="35.98" y="79.02" width="9.88" height="19.43"/>
          <rect class="cls-16" x="115.08" y="69.04" width="9.83" height="9.88"/>
          <rect class="cls-14" x="56.09" y="68.85" width="19.72" height="19.51"/>
          <rect class="cls-16" x="65.95" y="68.88" width="9.83" height="9.88"/>
        </g>
      </g>
      <g>
        <g>
          <path class="cls-7" d="M270.66,14.62v80.42c-4.83,1.56-8.74,1.82-11.74.8-1.98-.65-4.09-2.2-6.33-4.67-2.43-2.7-4.35-4.41-5.76-5.13-2.7-1.41-6.14-1.65-10.32-.74-1.86,5.97-7.88,9.29-18.07,9.97-3.08.19-7.75.17-14.02-.06-6.69-.23-11.42-.28-14.19-.17V14.62h80.42ZM248.71,65.81c2.01-3.72,2.91-10.13,2.68-19.21-.3-13.11-.38-20.52-.23-22.23h-19.49v41.44h17.04Z"/>
          <path class="cls-19" d="M262.92,98.98c-1.75,0-3.37-.25-4.82-.75-2.39-.78-4.82-2.54-7.38-5.37-2.91-3.23-4.41-4.25-5.04-4.58-1.89-.99-4.33-1.24-7.3-.77-2.65,6.12-9.29,9.57-19.76,10.28-3.18.2-7.94.18-14.28-.05-6.57-.22-11.31-.28-14-.17l-2.63.11V12.1h85.47v84.78l-1.75.56c-3.15,1.02-6.01,1.53-8.51,1.53ZM241.1,82.24c2.58,0,4.9.53,6.89,1.56,1.68.87,3.8,2.73,6.46,5.68,1.93,2.12,3.69,3.46,5.24,3.97,2.18.74,4.98.63,8.43-.29V17.15h-75.37v75.32c2.84-.02,6.78.06,11.75.23,6.17.22,10.81.24,13.78.06,9.1-.61,14.28-3.3,15.81-8.21l.44-1.4,1.43-.31c1.81-.4,3.54-.6,5.13-.6ZM250.22,68.33h-21.07V21.85h24.77l-.24,2.75c-.1,1.11-.14,5.82.24,21.95.24,9.61-.73,16.31-2.98,20.47l-.72,1.32ZM234.19,63.28h12.91c1.36-3.49,1.96-9.07,1.77-16.62-.26-11.37-.32-16.93-.3-19.77h-14.37v36.39Z"/>
        </g>
        <g>
          <path class="cls-7" d="M274.47,38.16h30.04v58.31h-30.04v-58.31Z"/>
          <path class="cls-19" d="M307.03,98.99h-35.08v-63.35h35.08v63.35ZM277,93.95h24.99v-53.26h-24.99v53.26Z"/>
        </g>
        <g>
          <path class="cls-7" d="M306.96,15.19h81.28v19.72h-14.76c-1.25-.8-2.62-2.11-4.1-3.93-1.79-2.24-3.02-3.67-3.7-4.27-3.34-3-8.13-3.55-14.36-1.65-2.2,3.19-3.14,9.25-2.79,18.18.49,11.97.61,19.04.34,21.2.68,2.17,3.46,3.1,8.32,2.79,6.57-.46,10.35-.57,11.34-.34v19.72c-6.73-.95-11.88-.76-15.45.57-4.07,1.52-6.31,4.62-6.73,9.29h-39.38V15.19Z"/>
          <path class="cls-19" d="M348.65,98.99h-44.21V12.67h86.32v24.77h-18.02l-.62-.4c-1.5-.95-3.04-2.42-4.71-4.47-2.23-2.8-3.1-3.69-3.42-3.98-2.53-2.27-6.16-2.7-11.04-1.39-1.16,2.2-2.27,6.71-1.92,15.93.58,13.94.54,18.77.4,20.8.47.44,1.79.83,4.04.83.49,0,1-.02,1.55-.05,4.46-.31,7.6-.46,9.58-.46,1.2,0,1.94.05,2.49.18l1.96.45v24.63l-2.88-.41c-6.24-.88-11.08-.73-14.21.44-3.14,1.17-4.76,3.45-5.09,7.15l-.21,2.3ZM309.49,93.95h34.71c1.01-4.41,3.74-7.54,8-9.13,3.43-1.28,8.01-1.63,13.81-1.05v-14.46c-1.88.03-4.78.18-8.64.45-.67.04-1.29.06-1.88.06-5.02,0-8.06-1.55-9.02-4.61l-.17-.52.07-.54c.17-1.39.25-6.12-.36-20.79-.37-9.58.69-16.03,3.24-19.72l.5-.72.84-.26c7.11-2.17,12.78-1.4,16.78,2.19.5.44,1.47,1.41,3.99,4.58,1.06,1.3,2.04,2.3,2.92,2.98h11.44v-14.67h-76.23v76.23Z"/>
        </g>
        <g>
          <path class="cls-7" d="M445.35,38.28c-.91,2.24-1.06,3.86-.46,4.84.38.72,1.29,1.25,2.74,1.6,1.9.46,3.04.8,3.42,1.03,1.03.57,1.46,1.58,1.31,3.02.23,1.6-.15,2.68-1.14,3.25-.76.46-2.03.63-3.82.51-5.66-.3-8.66-.4-9-.28v-6.95h-13.96v36.65c3.46.87,6.34.85,8.66-.06,1.37-.53,3.08-1.73,5.13-3.59,2.01-1.82,3.74-3,5.19-3.53,2.39-.84,5.38-.78,8.95.17v13.96c-6-1.33-8.34,1.01-7.01,7.01h-43.6c1.33-6-1.01-8.34-7.01-7.01v-43.6c6,1.33,8.34-1.01,7.01-7.01h43.6Z"/>
          <path class="cls-19" d="M448.49,98.42h-49.89l.68-3.07c.49-2.22.31-3.45-.03-3.87-.3-.38-1.14-.43-1.61-.43-.66,0-1.45.1-2.36.3l-3.07.68v-49.89l3.07.68c.9.2,1.7.3,2.36.3.47,0,1.31-.06,1.61-.43.34-.42.52-1.65.03-3.87l-.68-3.07h50.49l-1.41,3.47c-.73,1.8-.64,2.5-.62,2.61.09.07.41.25,1.14.42,2.7.65,3.58.98,4.14,1.32,1.01.56,2.75,2.02,2.55,5.13.37,3.34-1.34,4.87-2.41,5.49-1.19.71-2.85,1-5.24.85-4.03-.22-6.72-.33-7.97-.33-.13,0-.24,0-.33,0l-3.07,1.03v-7.93h-8.92v32.07c2.07.32,3.82.2,5.22-.35.75-.29,2.1-1.06,4.36-3.11,2.28-2.06,4.24-3.38,6.01-4.03,2.95-1.03,6.41-.98,10.47.1l1.88.5v19.05l-3.07-.68c-.9-.2-1.7-.3-2.36-.3-.47,0-1.31.06-1.62.43-.34.42-.52,1.65-.03,3.87l.68,3.07ZM404.63,93.38h37.84c-.07-2.1.41-3.77,1.44-5.05.88-1.1,2.67-2.4,5.93-2.31v-9.06c-2.23-.39-4.11-.33-5.59.19-.74.27-2.13,1.03-4.32,3.02-2.3,2.09-4.23,3.42-5.91,4.07-2.79,1.1-6.23,1.16-10.2.15l-1.9-.48v-41.14h19.01v6.94c1.52.05,3.71.15,6.62.3,1.47.09,2.18-.08,2.35-.14.02-.11.04-.34-.02-.74l-.04-.31.03-.31c.04-.35,0-.53-.02-.57-.08-.01-.61-.23-2.79-.76-2.16-.51-3.58-1.43-4.34-2.8-.58-.99-.8-2.17-.64-3.57h-37.43c.07,2.1-.41,3.77-1.44,5.05-.88,1.1-2.65,2.41-5.93,2.31v37.84c3.27-.1,5.05,1.21,5.93,2.31,1.03,1.28,1.51,2.95,1.44,5.05Z"/>
        </g>
        <g>
          <path class="cls-7" d="M454.75,38.16h30.04v58.31h-30.04v-58.31Z"/>
          <path class="cls-19" d="M487.31,98.99h-35.08v-63.35h35.08v63.35ZM457.27,93.95h24.99v-53.26h-24.99v53.26Z"/>
        </g>
      </g>
    </g>
  </g>
</svg>