<?xml version="1.0" encoding="UTF-8"?>
<svg id="Capa_1" data-name="Capa 1" xmlns="http://www.w3.org/2000/svg" viewBox="0 0 153.64 38.43">
  <defs>
    <style>
      .cls-1 {
        fill: #fff;
      }
    </style>
  </defs>
  <g>
    <path class="cls-1" d="M63.41,33.69c-.82,0-1.51-.36-1.94-1l-8.83-11.95-2.05,2.08v8.56c0,.62-.24,1.19-.68,1.64-.45.45-1.01.68-1.64.68s-1.19-.24-1.64-.68c-.44-.44-.68-1.01-.68-1.63V6.79c0-.62.24-1.19.68-1.64.45-.45,1.01-.68,1.64-.68s1.19.24,1.63.68c.45.45.68,1.01.68,1.64v9.59l11.14-11.14c.28-.28.55-.47.82-.59.28-.12.59-.18.93-.18.89,0,1.41.4,1.68.73.35.43.53.97.51,1.56-.02.58-.24,1.13-.67,1.62l-.02.03-9.03,9.03,9.2,12.56c.35.51.5,1.06.44,1.62-.06.55-.29,1.05-.68,1.43-.41.41-.93.63-1.51.63Z"/>
    <path class="cls-1" d="M76.07,33.86c-2.02,0-3.87-.47-5.47-1.38-1.61-.92-2.9-2.2-3.82-3.82-.92-1.61-1.38-3.45-1.38-5.47s.47-3.9,1.38-5.51c.92-1.61,2.2-2.9,3.82-3.82,1.61-.92,3.45-1.38,5.47-1.38s3.86.47,5.46,1.39c1.6.92,2.88,2.2,3.8,3.81.92,1.6,1.39,3.45,1.42,5.5,0,2.04-.47,3.88-1.4,5.49-.93,1.61-2.21,2.89-3.81,3.81-1.6.92-3.43,1.39-5.46,1.39ZM76.07,16.83c-1.19,0-2.22.27-3.15.81-.93.55-1.65,1.28-2.19,2.25-.53.96-.81,2.07-.81,3.3s.27,2.33.8,3.27c.54.96,1.25,1.69,2.19,2.23.93.55,1.96.81,3.15.81s2.23-.27,3.15-.81c.93-.55,1.64-1.28,2.17-2.23.52-.95.79-2.05.79-3.28s-.27-2.34-.79-3.3c-.53-.96-1.24-1.7-2.16-2.24-.93-.55-1.96-.81-3.15-.81Z"/>
    <path class="cls-1" d="M116.88,33.69c-.64,0-1.2-.22-1.64-.63-.44-.42-.68-1-.68-1.65v-10.07c0-1.43-.34-2.51-1.05-3.3-.68-.76-1.53-1.13-2.61-1.13-1.18,0-2.12.38-2.86,1.16-.75.79-1.1,1.83-1.08,3.19v.97s0,0,0,0v9.19c0,.65-.22,1.21-.65,1.64-.42.42-.99.65-1.64.65s-1.2-.22-1.64-.63c-.44-.42-.68-1-.68-1.65v-10.07c0-1.43-.34-2.51-1.05-3.3-.68-.76-1.53-1.13-2.61-1.13-1.19,0-2.14.37-2.89,1.13-.76.77-1.12,1.75-1.12,3.02v10.35c0,.65-.22,1.21-.65,1.64-.42.42-.99.65-1.64.65-.85,0-1.38-.35-1.67-.65-.42-.42-.65-.99-.65-1.64V14.97c0-.64.22-1.2.63-1.64.3-.31.83-.68,1.69-.68.66,0,1.23.23,1.65.68.15.15.27.32.36.51.14-.1.28-.19.43-.28,1.22-.74,2.61-1.12,4.13-1.12s2.94.38,4.15,1.12c.67.41,1.26.92,1.77,1.52.55-.61,1.2-1.12,1.92-1.54,1.28-.73,2.75-1.1,4.35-1.1s2.94.38,4.15,1.12c1.21.74,2.16,1.8,2.84,3.15.66,1.32.99,2.87.99,4.62v10.07c0,.65-.22,1.21-.65,1.64-.42.42-.99.65-1.64.65Z"/>
    <path class="cls-1" d="M133.84,33.86c-1.98,0-3.79-.47-5.39-1.39-1.6-.92-2.88-2.19-3.81-3.79-.93-1.59-1.42-3.4-1.44-5.38V6.79c0-.85.35-1.38.65-1.67.29-.29.82-.65,1.67-.65.65,0,1.21.22,1.64.65.29.29.65.82.65,1.67v7.88c.51-.41,1.06-.77,1.66-1.09,1.4-.73,2.98-1.11,4.69-1.11,1.96,0,3.75.48,5.32,1.41,1.56.93,2.81,2.22,3.72,3.83.9,1.61,1.36,3.43,1.36,5.43s-.47,3.87-1.4,5.48c-.93,1.61-2.22,2.9-3.83,3.83-1.61.93-3.45,1.4-5.48,1.4ZM133.84,16.83c-1.17,0-2.19.27-3.12.81-.93.55-1.64,1.28-2.16,2.24-.53.96-.79,2.06-.79,3.27s.27,2.33.79,3.28c.53.95,1.24,1.69,2.17,2.25.93.56,1.95.83,3.11.83s2.22-.27,3.15-.83c.94-.56,1.65-1.3,2.19-2.26.53-.95.8-2.05.8-3.27s-.27-2.3-.81-3.26c-.54-.96-1.25-1.7-2.19-2.25-.93-.55-1.96-.81-3.15-.81Z"/>
    <path class="cls-1" d="M150.8,33.69c-.85,0-1.38-.35-1.67-.65-.29-.29-.65-.82-.65-1.67V14.97c0-.85.35-1.38.65-1.67.29-.29.82-.65,1.67-.65.65,0,1.21.22,1.64.65.29.29.65.82.65,1.67v16.4c0,.85-.35,1.38-.65,1.67-.42.42-.99.65-1.64.65ZM150.76,10.92c-.76,0-1.46-.29-2-.84-.55-.55-.84-1.25-.84-2.04,0-.85.31-1.58.9-2.1.56-.49,1.23-.74,1.98-.74s1.38.25,1.94.74c.59.52.9,1.24.9,2.1,0,.78-.29,1.49-.84,2.04-.55.55-1.25.84-2.04.84Z"/>
  </g>
  <g>
    <path class="cls-1" d="M42.1,7.14c-1.08,0-1.97.88-1.97,1.97,0,.21.03.41.09.6l-1,.96-1.71-7.73c-.09-.39-.43-.67-.83-.68h.02S29.21,0,22.03,0,7.36,2.25,7.36,2.25h.1c-.4.01-.75.3-.83.68l-1.72,7.79-1.06-1.03c.06-.19.09-.39.09-.6,0-1.08-.88-1.97-1.97-1.97s-1.97.88-1.97,1.97.88,1.97,1.97,1.97c.23,0,.46-.04.67-.12l1.4,1.35s0,0,0,0l17.4,16.76c.17.16.38.24.6.24s.43-.08.6-.24l17.4-16.76s0,0,0,0l1.4-1.35c.21.08.43.12.67.12,1.08,0,1.97-.88,1.97-1.97s-.88-1.97-1.97-1.97ZM22.03,27.23l-12.2-11.75-3.05-2.94h30.5l-11.44,11.02-3.81,3.67ZM23.02,4.51c0-.55.47-1,1.03-.98l11.11.4c.46.02.84.33.94.77l1.09,4.92c.13.61-.34,1.18-.98,1.18h-12.2c-.55,0-1-.44-1-.98v-5.32ZM6.96,9.62l1.09-4.92c.1-.44.48-.75.94-.77l11.11-.4c.57-.02,1.03.42,1.03.98v5.32c0,.54-.45.98-1,.98H7.93c-.64,0-1.11-.57-.98-1.18Z"/>
    <path class="cls-1" d="M39.43,32.06V15.3l-17.4,16.76h9.17v1.73H12.87v-1.73h9.17L4.64,15.3v16.76h6.5v1.73h-5.63c-.48,0-.87.39-.87.87s.39.87.87.87h5.63v2.03c0,.48.39.87.87.87s.87-.39.87-.87v-2.03h18.33v2.03c0,.48.39.87.87.87s.87-.39.87-.87v-2.03h5.63c.48,0,.87-.39.87-.87s-.39-.87-.87-.87h-5.63v-1.73h6.5ZM7.57,21.39c.66,0,1.2.54,1.2,1.2s-.54,1.2-1.2,1.2-1.2-.54-1.2-1.2.54-1.2,1.2-1.2ZM8.77,30.32c-1.32,0-2.4-1.07-2.4-2.4s1.07-2.4,2.4-2.4,2.4,1.07,2.4,2.4-1.07,2.4-2.4,2.4ZM36.5,21.39c.66,0,1.2.54,1.2,1.2s-.54,1.2-1.2,1.2-1.2-.54-1.2-1.2.54-1.2,1.2-1.2ZM35.3,25.53c1.32,0,2.4,1.07,2.4,2.4s-1.07,2.4-2.4,2.4-2.4-1.07-2.4-2.4,1.07-2.4,2.4-2.4Z"/>
    <g>
      <path class="cls-1" d="M22.04,15.3c-2.14,0-3.87,1.73-3.87,3.87s1.73,3.87,3.87,3.87,3.87-1.73,3.87-3.87-1.73-3.87-3.87-3.87ZM24.64,18.68h-1.56v.97h1.56v.56h-1.56v1.56h-.56v-1.56h-.97v1.56h-.56v-1.56h-1.56v-.56h1.56v-.97h-1.56v-.56h1.56v-1.56h.56v1.56h.97v-1.56h.56v1.56h1.56v.56Z"/>
      <rect class="cls-1" x="21.55" y="18.68" width=".97" height=".97"/>
    </g>
  </g>
</svg>